HIERARCHY
ROOT Hips
{
	OFFSET 4.587181 114.993721 -2.254644
	CHANNELS 6 Xposition Yposition Zposition Xrotation Yrotation Zrotation
	JOINT Chest
	{
		OFFSET 1.902796 13.324776 2.232485
		CHANNELS 3 Xrotation Yrotation Zrotation
		JOINT Chest2
		{
			OFFSET -3.019516 19.896133 7.354798
			CHANNELS 3 Xrotation Yrotation Zrotation
			JOINT Chest3
			{
				OFFSET -0.182663 14.581253 3.189636
				CHANNELS 3 Xrotation Yrotation Zrotation
				JOINT Neck
				{
					OFFSET 0.443281 16.713150 4.369216
					CHANNELS 3 Xrotation Yrotation Zrotation
					JOINT Head
					{
						OFFSET 1.691190 9.903564 2.981127
						CHANNELS 3 Xrotation Yrotation Zrotation
						End Site
						{
							OFFSET 1.693519 9.923996 2.910997
						}
					}
				}
				JOINT LeftCollar
				{
					OFFSET 4.433842 11.951767 6.269040
					CHANNELS 3 Xrotation Yrotation Zrotation
					JOINT LeftUpArm
					{
						OFFSET 16.610138 0.900772 -5.638374
						CHANNELS 3 Xrotation Yrotation Zrotation
						JOINT LeftLowArm
						{
							OFFSET 31.783724 -5.406570 10.014563
							CHANNELS 3 Xrotation Yrotation Zrotation
							JOINT LeftHand
							{
								OFFSET 20.703178 -5.319672 21.071922
								CHANNELS 3 Xrotation Yrotation Zrotation
								End Site
								{
									OFFSET 4.524811 -1.162659 4.605389
								}
							}
						}
					}
				}
				JOINT RightCollar
				{
					OFFSET -3.973843 12.241928 6.012694
					CHANNELS 3 Xrotation Yrotation Zrotation
					JOINT RightUpArm
					{
						OFFSET -16.163057 1.772827 -6.641466
						CHANNELS 3 Xrotation Yrotation Zrotation
						JOINT RightLowArm
						{
							OFFSET -33.222298 -3.282150 5.024031
							CHANNELS 3 Xrotation Yrotation Zrotation
							JOINT RightHand
							{
								OFFSET -20.804585 -8.361832 19.955044
								CHANNELS 3 Xrotation Yrotation Zrotation
								End Site
								{
									OFFSET -4.547043 -1.827560 4.361378
								}
							}
						}
					}
				}
			}
		}
	}
	JOINT LeftUpLeg
	{
		OFFSET 9.526026 -1.787056 2.545663
		CHANNELS 3 Xrotation Yrotation Zrotation
		JOINT LeftLowLeg
		{
			OFFSET 4.288517 -45.494186 12.485116
			CHANNELS 3 Xrotation Yrotation Zrotation
			JOINT LeftFoot
			{
				OFFSET -5.660347 -40.192608 -18.790514
				CHANNELS 3 Xrotation Yrotation Zrotation
				JOINT LeftToe
				{
					OFFSET 1.350027 -10.341324 21.231918
					CHANNELS 3 Xrotation Yrotation Zrotation
					End Site
					{
						OFFSET -1.804236 5.187477 23.008556
					}
				}
			}
		}
	}
	JOINT RightUpLeg
	{
		OFFSET -9.526058 1.786858 -2.545696
		CHANNELS 3 Xrotation Yrotation Zrotation
		JOINT RightLowLeg
		{
			OFFSET -45.453140 -8.373032 10.388254
			CHANNELS 3 Xrotation Yrotation Zrotation
			JOINT RightFoot
			{
				OFFSET 6.482105 -34.881889 -27.236301
				CHANNELS 3 Xrotation Yrotation Zrotation
				JOINT RightToe
				{
					OFFSET -19.737385 -12.023064 5.043680
					CHANNELS 3 Xrotation Yrotation Zrotation
					End Site
					{
						OFFSET -21.466198 3.217010 9.402613
					}
				}
			}
		}
	}
}
MOTION
Frames: 16
Frame Time: 0.033333
-2.830563 106.163689 -1.111722 -1.821830 12.776198 9.267388 -10.054249 4.134944 -11.397485 -2.999755 -3.436629 3.722541 6.661831 -8.233246 -1.085814 -1.105412 -8.645648 8.427413 0.000000 -0.000000 -0.000000 9.512108 8.580317 -22.486453 18.515608 -4.764374 -47.504082 15.977906 2.545155 3.304424 -0.000000 0.000003 0.000002 7.186153 -10.296300 25.090032 16.866905 5.147262 46.186607 10.772176 -4.684078 -10.352267 0.000001 -0.000002 -0.000000 21.281505 -2.598337 -8.555822 -30.439086 4.145087 15.141013 26.103067 -18.029314 -21.209617 0.000001 0.000001 -0.000001 20.284465 -0.862471 68.772533 -3.171589 41.218610 -81.227758 12.509217 34.196206 31.926408 -0.000000 0.000000 -0.000001 
-2.834164 106.163414 -1.111307 -1.267787 12.576586 9.215249 -10.750883 4.300410 -11.510104 -2.515174 -3.360793 3.785816 6.570762 -8.217874 -1.014102 -1.237689 -8.518229 8.370754 0.000000 -0.000000 -0.000001 9.518815 7.906645 -22.409048 18.801045 -4.260738 -47.734802 15.751350 2.293820 3.637814 0.000002 -0.000003 0.000002 7.261479 -9.742099 25.171293 16.754702 5.229906 46.239011 10.619970 -4.685334 -10.585597 -0.000001 -0.000006 -0.000001 20.812724 -2.583787 -8.579803 -30.387641 4.115845 15.083332 25.899099 -17.839786 -21.147014 0.000000 0.000001 -0.000001 19.753131 -0.736292 68.662567 -2.941976 41.121560 -81.256022 12.259018 34.210334 32.096322 -0.000001 -0.000001 0.000000 
-2.836994 106.162811 -1.106746 -0.920734 12.540194 9.238258 -11.239702 4.438968 -11.672976 -2.759765 -3.366867 3.735832 6.953634 -8.354396 -0.936867 -1.209485 -8.377482 8.296238 0.000000 -0.000000 -0.000000 9.472316 8.356017 -22.345901 18.883122 -4.260494 -47.896667 15.826747 2.438040 3.684384 -0.000000 0.000000 -0.000001 7.204396 -10.033885 25.092466 16.681677 5.434291 46.226567 10.826474 -5.039531 -10.321748 0.000004 -0.000001 0.000001 20.578018 -2.603656 -8.673932 -30.414737 4.111356 15.121182 25.931179 -17.813502 -21.063012 0.000001 0.000000 -0.000000 19.558727 -0.703612 68.606641 -2.964431 41.280082 -81.373713 12.396938 34.235456 32.174101 -0.000000 -0.000003 -0.000000 
-2.841819 106.157684 -1.103063 -0.637906 12.819953 9.259422 -11.279096 4.461138 -11.682457 -3.104134 -3.426120 3.691859 7.223017 -8.547238 -1.001669 -1.417361 -8.409423 8.291299 0.000002 -0.000000 -0.000001 9.558599 7.357128 -22.306281 18.964196 -4.013682 -48.058802 15.478780 2.002869 3.995928 0.000005 -0.000000 0.000000 7.274343 -9.337931 24.987487 16.695912 5.264594 46.471214 10.526460 -4.712275 -10.645780 -0.000000 -0.000003 0.000003 20.290240 -2.616273 -8.755438 -30.299371 3.997188 15.196665 26.080676 -17.969152 -21.290914 0.000000 0.000001 -0.000002 19.528622 -0.681935 68.594033 -3.001150 41.450041 -81.312500 12.400815 33.969505 31.884535 -0.000003 -0.000005 -0.000001 
-2.844133 106.158875 -1.103567 -0.396240 12.434235 9.239135 -11.160328 4.459133 -11.738654 -3.329821 -3.289560 3.504844 7.394419 -8.368272 -0.733335 -1.530906 -8.491063 8.291434 0.000000 -0.000001 -0.000000 9.579231 7.497244 -22.307666 18.913315 -4.308185 -48.007665 15.688929 2.300562 4.037856 0.000004 0.000000 -0.000000 7.320237 -9.254677 24.978728 16.715384 5.496241 46.417634 10.697324 -4.827972 -10.768891 0.000003 0.000003 -0.000002 19.954469 -2.600706 -8.803565 -30.382567 4.049010 15.077899 26.002998 -17.781207 -20.978759 0.000000 0.000000 -0.000002 19.316268 -0.655285 68.497734 -3.039766 41.367894 -81.302016 12.280907 34.340887 32.152214 -0.000001 -0.000003 -0.000003 
-2.849233 106.159096 -1.101159 -0.992021 12.797407 9.257963 -10.592609 4.314461 -11.631069 -3.178096 -3.301588 3.563571 6.983622 -8.430138 -0.875028 -1.276317 -8.618902 8.367255 0.000002 -0.000000 0.000001 9.577054 7.901830 -22.352757 18.745727 -4.765616 -47.857947 16.007071 2.521238 3.846101 0.000003 -0.000002 -0.000001 7.270667 -9.673134 24.935749 16.813967 5.504848 46.381916 10.881678 -4.837810 -10.682962 0.000001 -0.000006 -0.000003 20.473664 -2.623470 -8.660736 -30.242073 4.042618 15.210326 26.110826 -18.005892 -21.265483 0.000000 0.000001 -0.000002 19.892308 -0.729819 68.702851 -3.143131 41.328167 -81.249273 12.205268 34.345108 32.102688 -0.000001 -0.000001 -0.000001 
-2.853003 106.153336 -1.095037 -0.818966 12.918981 9.214433 -10.968595 4.398288 -11.668133 -3.526482 -3.466759 3.603154 7.388138 -8.704339 -1.025684 -1.248393 -8.565828 8.319767 0.000002 0.000000 -0.000001 9.428221 8.151707 -22.345862 18.809076 -4.382196 -47.954533 15.914655 2.369585 3.573691 -0.000001 -0.000003 -0.000002 7.250244 -9.170208 24.930081 16.868172 5.056601 46.473594 10.739833 -4.501558 -10.673778 0.000001 -0.000001 0.000004 20.508567 -2.616461 -8.598878 -30.430648 4.062821 15.256935 26.284296 -18.121853 -21.345897 -0.000001 0.000000 0.000000 19.914421 -0.729373 68.780688 -3.215822 41.660712 -81.381738 12.590729 34.152394 32.037030 0.000000 0.000000 -0.000001 
-2.855586 106.148758 -1.088556 -0.629081 12.793049 9.268028 -11.314050 4.522151 -11.820524 -3.060401 -3.484571 3.749806 7.179700 -8.424677 -1.027785 -1.405909 -8.636814 8.417963 0.000002 -0.000000 -0.000001 9.334131 8.563755 -22.257210 18.663502 -4.523922 -48.067634 16.077260 2.727332 3.128575 -0.000002 -0.000001 0.000003 7.108351 -9.841444 24.710229 16.840190 5.013259 46.486312 10.930680 -4.668670 -10.211923 0.000002 -0.000003 0.000003 20.670589 -2.610129 -8.624573 -30.823909 4.129495 15.148760 26.384782 -18.097107 -21.203226 0.000000 0.000000 0.000001 19.837518 -0.776277 68.681036 -3.185212 41.525119 -81.374225 12.323288 34.510180 32.310555 -0.000001 0.000002 0.000002 
-2.858577 106.144249 -1.082137 -1.090764 12.830949 9.274175 -10.553749 4.349551 -11.677882 -2.987108 -3.526769 3.801802 6.832149 -8.507838 -1.184278 -1.627349 -8.566570 8.367036 -0.000001 -0.000000 -0.000002 9.323383 8.613704 -22.249749 18.728840 -4.313036 -48.017589 16.050731 2.348544 3.001775 0.000007 0.000002 -0.000001 7.105568 -9.762202 24.693109 16.794476 5.057148 46.418061 10.918509 -4.626741 -10.091444 0.000002 -0.000004 -0.000000 21.179928 -2.615854 -8.520839 -30.856449 4.060698 15.214948 26.400170 -18.115031 -21.246907 -0.000001 0.000001 -0.000002 20.185567 -0.847960 68.733423 -3.227598 41.546593 -81.274818 12.767895 34.187761 32.103252 -0.000002 0.000002 -0.000000 
-2.865079 106.138153 -1.080366 -0.329919 12.544709 9.335898 -11.227865 4.562594 -11.932246 -3.591716 -3.465130 3.579365 7.607307 -8.758434 -1.017380 -2.079521 -8.407017 8.241903 0.000002 -0.000000 -0.000000 9.150398 9.445135 -22.189744 18.782416 -4.100458 -48.010708 16.058282 1.926754 2.801812 0.000005 -0.000000 0.000001 7.002414 -9.802804 24.489124 16.671351 5.154718 46.441345 11.093643 -4.779972 -9.533924 -0.000000 -0.000002 0.000001 20.718318 -2.649260 -8.709001 -31.082074 4.095445 15.139249 26.289349 -17.984510 -21.073488 -0.000002 0.000000 -0.000002 19.813289 -0.795194 68.503710 -3.336925 41.774830 -81.244923 12.856694 34.355319 32.272043 -0.000002 -0.000001 -0.000004 
-2.867172 106.135132 -1.078613 -0.276884 12.314971 9.349833 -11.035163 4.551539 -11.957295 -3.709537 -3.372167 3.456509 7.614645 -8.699835 -0.857030 -2.120334 -8.311722 8.163707 0.000000 -0.000001 0.000000 9.119767 9.672687 -22.164912 18.622736 -4.223687 -47.998816 16.036024 1.852815 2.589079 0.000003 0.000002 -0.000000 7.057056 -9.321045 24.536379 16.625042 5.198172 46.325645 10.876352 -4.532924 -9.567897 -0.000000 -0.000001 0.000001 20.570435 -2.649313 -8.790822 -30.810099 3.933147 15.129158 25.978717 -17.826975 -21.088713 0.000001 0.000000 -0.000000 19.695604 -0.778642 68.390602 -3.156788 41.502381 -81.206489 12.475109 34.689585 32.498559 0.000000 -0.000001 -0.000000 
-2.869552 106.134087 -1.080617 -0.533089 12.361597 9.364698 -10.720733 4.498847 -11.905949 -2.868219 -3.339829 3.639130 6.645480 -8.687336 -1.009543 -2.030769 -8.284614 8.104560 0.000000 -0.000000 -0.000001 8.990898 9.834020 -22.110048 18.736087 -3.700129 -48.056330 15.977542 1.555538 2.245616 0.000004 0.000003 0.000003 6.976370 -9.232747 24.504654 16.625994 4.771635 46.314717 10.796131 -4.417893 -9.308849 0.000000 -0.000002 -0.000001 20.885383 -2.638272 -8.701454 -30.853269 3.910540 15.129492 26.333653 -18.018893 -21.177340 -0.000001 0.000001 -0.000001 20.166615 -0.873876 68.480460 -3.257320 41.903993 -81.247293 12.723895 34.587583 32.497046 -0.000002 0.000001 -0.000001 
-2.877384 106.136223 -1.085090 -0.499744 12.263173 9.369261 -11.020222 4.572602 -12.000088 -2.492491 -3.259350 3.669680 6.501322 -8.358984 -0.919493 -1.913235 -8.516688 8.239976 0.000002 0.000000 0.000001 9.239458 8.710557 -22.241292 18.773624 -3.787783 -47.923647 15.713871 1.430866 2.814252 0.000002 0.000001 0.000002 6.950425 -10.067937 24.546033 16.652177 4.994569 46.045048 10.995405 -4.395578 -9.213412 0.000000 -0.000001 0.000002 20.889778 -2.638739 -8.734898 -30.858904 3.863144 15.152840 26.097480 -17.966811 -21.307596 0.000001 -0.000000 -0.000002 20.083627 -0.853780 68.411755 -3.233698 41.760029 -81.119554 12.773947 34.500412 32.415197 -0.000001 0.000002 -0.000002 
-2.880086 106.135483 -1.082461 -0.636124 12.519348 9.450001 -10.788663 4.547972 -12.037902 -3.203888 -3.294526 3.514359 7.035217 -8.662367 -0.946169 -1.762035 -8.586094 8.277426 0.000000 -0.000000 -0.000000 9.247715 8.899976 -22.213541 18.831952 -3.713300 -47.848726 15.746748 1.314621 2.856257 0.000005 -0.000001 0.000003 7.047686 -9.620820 24.485777 16.607690 5.117467 46.065869 10.889174 -4.050580 -9.532070 -0.000000 -0.000006 0.000001 20.975531 -2.632722 -8.741550 -30.898714 3.891923 15.081648 26.335430 -18.052193 -21.289799 0.000000 0.000001 -0.000001 20.269566 -0.901203 68.420150 -3.242802 41.754517 -81.111256 12.669023 34.423867 32.302785 -0.000003 -0.000001 -0.000000 
-2.883554 106.135971 -1.083594 -0.534626 12.436073 9.399380 -10.938154 4.572264 -12.022957 -2.613890 -3.258522 3.634401 6.649281 -8.447505 -0.937558 -1.764977 -8.657901 8.368063 0.000002 -0.000000 -0.000000 9.207419 8.780837 -22.341745 18.648416 -3.797393 -47.683668 15.704695 1.580236 2.634880 0.000007 -0.000003 0.000002 6.884884 -10.075072 24.503406 16.461562 5.165409 45.871848 10.844318 -4.103763 -9.230141 -0.000004 -0.000006 -0.000000 20.943230 -2.609893 -8.681920 -30.923562 3.894143 14.999645 26.235069 -17.926074 -21.150845 0.000001 0.000001 -0.000001 20.290948 -0.922599 68.491361 -3.238911 41.905546 -81.162414 12.406142 34.608166 32.488669 -0.000002 -0.000001 -0.000000 
-2.888695 106.136902 -1.087616 -0.916285 12.336406 9.431234 -10.565393 4.535432 -12.082392 -2.231133 -3.221918 3.697568 6.269088 -8.402205 -0.958780 -2.191926 -8.700952 8.379679 0.000000 -0.000000 0.000001 9.157903 8.820312 -22.187292 18.737128 -3.529403 -47.646344 15.643165 0.930443 2.526428 0.000000 0.000000 -0.000000 6.826173 -10.177332 24.431535 16.371685 5.140948 45.815543 10.837623 -3.976180 -8.974127 0.000001 -0.000002 -0.000002 21.120731 -2.628837 -8.656564 -30.725913 3.907722 14.993983 26.184760 -17.903502 -21.157442 -0.000001 -0.000000 0.000000 20.522087 -0.965365 68.523627 -3.250508 41.841162 -81.160379 12.242620 34.654426 32.484134 0.000001 -0.000001 -0.000002 
